PathFileType	4	(X/Y/Z)	C:/Users/opensim2020/Desktop/walking_exp_matlab/subject06_walking23_straight_03.trc	
DataRate	CameraRate	NumFrames	NumMarkers	Units	OrigDataRate	OrigDataStartFrame	OrigNumFrames	
100.00	100.00	4	45	mm	100.00	1798	94	
Frame#	Time	LFHD			RFHD			LBHD			RBHD			C7			T10			CLAV			STRN			RBAK			LSHO			LUPA			LELB			LFRM			LWRA			LWRB			LFIN			RSHO			RUPA			RELB			RFRM			RWRA			RWRB			RFIN			LASI			RASI			LPSI			RPSI			LTHI			LKNE			LTIB			LANK			LHEE			LTOE			RTHI			RKNE			RTIB			RANK			RHEE			RTOE			*39			*40			*41			*42			*43			*44			
		X1	Y1	Z1	X2	Y2	Z2	X3	Y3	Z3	X4	Y4	Z4	X5	Y5	Z5	X6	Y6	Z6	X7	Y7	Z7	X8	Y8	Z8	X9	Y9	Z9	X10	Y10	Z10	X11	Y11	Z11	X12	Y12	Z12	X13	Y13	Z13	X14	Y14	Z14	X15	Y15	Z15	X16	Y16	Z16	X17	Y17	Z17	X18	Y18	Z18	X19	Y19	Z19	X20	Y20	Z20	X21	Y21	Z21	X22	Y22	Z22	X23	Y23	Z23	X24	Y24	Z24	X25	Y25	Z25	X26	Y26	Z26	X27	Y27	Z27	X28	Y28	Z28	X29	Y29	Z29	X30	Y30	Z30	X31	Y31	Z31	X32	Y32	Z32	X33	Y33	Z33	X34	Y34	Z34	X35	Y35	Z35	X36	Y36	Z36	X37	Y37	Z37	X38	Y38	Z38	X39	Y39	Z39	X40	Y40	Z40	X41	Y41	Z41	X42	Y42	Z42	X43	Y43	Z43	X44	Y44	Z44	X45	Y45	Z45	

59	0.580	1359.88416	149.30109	1633.87427	1492.05420	158.31523	1629.75745	1372.14868	14.69986	1584.79211	1501.45044	24.85850	1585.51758	1433.65283	12.52060	1429.92249	1446.50134	-42.48135	1104.48511	1432.18787	119.64299	1348.26123	1431.25183	149.38202	1171.98132	1523.46484	-65.69359	1268.04993	1271.11609	59.33437	1378.03662	1201.33801	-1.22697	1186.34387	1192.19568	-44.27748	1082.43042	1166.61865	-70.88776	935.18756	1199.00562	-45.91661	805.34253	1170.29077	-109.94261	822.26453	1164.72278	-100.01098	731.80597	1592.71521	81.04026	1387.63599	1699.84900	50.69369	1200.38135	1722.49426	72.07429	1086.68884	1729.44946	150.30246	1002.65723	1671.79077	275.82608	940.05121	1718.96704	243.71170	904.34210	1705.79333	320.66644	873.90588	1345.74805	140.97551	939.96649	1563.79883	124.03114	944.69849	1357.98633	-19.91283	963.89465	1527.05200	-26.93569	974.13367	1277.75281	143.21550	628.05017	1314.81201	212.95087	482.99225	1329.82776	274.63611	239.32738	1373.66663	347.50247	81.91478	1422.91797	318.86716	55.76385	1373.45068	492.32388	106.71381	1600.52466	15.31035	615.75171	1574.72473	-12.26418	491.87689	1555.32324	-148.79463	255.82104	1496.11572	-221.96088	87.34557	1449.59290	-266.10529	73.83186	1499.37146	-78.08410	35.46417	1423.92908	54.69741	1678.92981															 
60	0.590	1359.26245	163.06546	1632.09570	1491.45752	172.26379	1628.00220	1371.80457	28.46073	1582.58337	1501.02026	38.95361	1583.39124	1433.07031	26.82272	1427.85791	1446.10461	-27.61193	1102.13232	1431.57788	134.17497	1346.40112	1430.93909	164.31958	1170.18433	1522.95703	-51.18821	1265.86926	1270.44897	73.54013	1375.80664	1201.21570	11.64205	1184.56567	1192.17896	-32.31925	1080.94385	1166.54150	-61.09986	934.24060	1198.14099	-37.71018	803.91260	1170.26416	-101.68838	821.82916	1164.35400	-93.00729	731.28784	1592.29504	95.45521	1385.68652	1699.55359	64.88979	1198.42773	1722.60815	86.48297	1085.01404	1729.03149	165.50127	1001.95233	1670.56055	291.17389	940.66895	1718.12561	260.15167	905.15784	1704.52649	337.25089	875.37170	1345.81885	157.35088	938.20679	1564.16968	138.56445	942.70740	1356.80518	-4.29595	961.83917	1525.89221	-12.83066	971.75012	1277.54907	160.26366	626.63135	1315.03162	228.80963	481.75882	1331.17078	292.89096	238.18681	1375.50073	366.80136	81.82728	1425.02063	338.40561	55.36400	1374.97778	511.10788	108.16921	1600.74133	28.24542	614.30017	1575.01270	0.12944	490.23898	1555.68433	-141.89453	257.22632	1497.14685	-220.12341	90.92725	1450.84302	-264.85843	78.94777	1499.25781	-77.86460	35.36534	1423.47412	68.42423	1676.87097															 
61	0.600	1358.58569	176.94792	1630.72839	1490.73669	186.26340	1626.63501	1371.25061	42.54335	1580.72583	1500.42749	53.09322	1581.55139	1432.43726	41.24960	1426.14856	1445.62744	-12.40617	1100.16064	1431.03296	148.82436	1344.88025	1430.57532	179.46127	1168.67371	1522.33191	-36.52317	1264.01172	1269.74487	87.73476	1373.87170	1200.98828	24.87816	1183.02905	1192.17505	-19.70424	1079.67102	1166.37390	-50.39526	933.37720	1197.40576	-29.11619	802.60120	1170.09399	-92.54853	821.52185	1164.12524	-84.99395	730.77362	1591.85925	109.99718	1384.02832	1698.99585	78.94492	1196.88281	1722.45264	100.71865	1083.62231	1728.52051	180.24075	1001.19147	1669.37964	305.86066	940.68903	1717.51599	275.68549	905.32178	1703.39758	352.89215	876.21094	1346.31653	172.78809	936.53748	1564.53821	153.40520	941.00189	1355.67639	11.50067	960.07336	1524.57715	2.27512	969.42871	1277.87012	178.19931	626.26953	1315.70325	244.93353	481.15451	1332.08667	308.75165	236.99706	1377.20691	381.91223	80.49596	1426.66443	353.62701	53.98020	1376.73279	526.18243	107.04553	1600.93872	41.86641	613.09302	1575.39966	13.35185	488.92816	1556.36670	-134.46948	259.21786	1498.54724	-217.82004	95.22966	1452.48889	-262.93777	84.73444	1499.25391	-77.66079	35.25334	1422.88318	82.20168	1675.13733															 
62	0.610	1357.80811	190.81955	1629.65466	1490.05811	200.29196	1625.60718	1370.58911	56.62520	1579.21631	1499.81055	67.21661	1580.05786	1431.69434	55.76585	1424.76880	1445.12708	2.99815	1098.53027	1430.29272	163.56178	1343.73779	1430.06641	194.67111	1167.59570	1521.67188	-22.04759	1262.49658	1268.98560	102.22386	1372.28821	1200.69019	38.51261	1181.75903	1192.12109	-6.52478	1078.54663	1166.40417	-38.52122	932.59869	1196.95923	-19.00336	801.58228	1169.93054	-82.14829	821.31335	1164.32813	-76.32240	730.43646	1591.27246	124.66502	1382.86853	1698.28723	92.83073	1195.74329	1721.99243	114.77657	1082.56335	1727.69958	194.32286	1000.33124	1668.27173	319.89920	940.14075	1716.82910	290.15475	905.00153	1702.55200	367.48285	876.33282	1346.17676	189.43138	935.67542	1564.71863	168.62473	939.57111	1354.78198	27.56173	958.59906	1523.46887	17.50333	967.48981	1278.37219	196.66937	626.49182	1316.53772	261.83139	481.33371	1333.04321	323.18686	235.60974	1378.63171	393.09976	78.03452	1428.01135	364.23419	51.59975	1378.78210	537.24548	102.95984	1601.04919	56.28376	612.06055	1576.00208	27.39891	487.84265	1557.15686	-126.31985	261.64899	1500.22009	-215.01016	100.20088	1454.54126	-260.61649	91.52381	1499.27380	-77.45630	35.13036	1422.24329	95.91438	1673.73914															 
